<svg width="421" height="96" viewBox="0 0 421 96" fill="none" xmlns="http://www.w3.org/2000/svg">
<g clip-path="url(#clip0_1083_1563)">
<path d="M408.899 62.0826C399.819 60.8706 399.412 60.8053 399.184 60.5236C399.008 60.3057 398.964 60.1149 399.017 59.7868C399.149 58.9602 399.33 55.8763 399.331 54.4435C399.331 53.0472 399.148 49.9232 399.02 49.1565C398.976 48.8945 399.026 48.6843 399.175 48.5035C399.378 48.2572 400.154 48.1382 409.368 46.9407C416.315 46.0378 419.409 45.6806 419.564 45.7636C419.84 45.9114 419.897 46.0874 420.043 47.2509C420.48 50.7224 420.512 56.9956 420.113 61.0116C419.892 63.2433 419.822 63.3839 418.947 63.3619C418.633 63.3541 414.112 62.7784 408.899 62.0826Z" fill="#F4A901"/>
<path d="M13.3414 95.3036C10.9329 92.1483 7.95539 87.0781 6.11585 82.9997C5.43409 81.4882 5.33008 81.0886 5.53446 80.7662C5.71018 80.489 24.1791 72.9072 24.4891 72.985C24.6948 73.0366 24.9884 73.523 25.7006 74.9921C27.0768 77.8307 28.46 80.1726 30.177 82.5709C30.5264 83.0588 30.6214 83.2931 30.5635 83.5236C30.4538 83.9608 14.8318 95.9135 14.2818 95.9811C13.9346 96.0238 13.838 95.9542 13.3414 95.3036Z" fill="#05AAE7"/>
<path d="M0.676258 63.1576C0.0148815 62.4268 -0.240132 52.9046 0.270904 48.0217C0.464514 46.1718 0.564729 45.8222 0.935085 45.7047C1.16403 45.632 20.5689 48.1539 20.9685 48.3083C21.3694 48.4631 21.4297 48.7757 21.2811 49.9308C21.1056 51.2957 21.0994 57.7285 21.2723 59.1579C21.4136 60.3269 21.3007 60.7089 20.7775 60.8323C20.389 60.924 1.45385 63.3762 1.1346 63.3762C0.991283 63.3762 0.785017 63.2778 0.676258 63.1576Z" fill="#A9C701"/>
<path d="M397.782 89.8891C391.074 84.7308 389.836 83.7309 389.803 83.4458C389.774 83.1959 389.954 82.84 390.497 82.0757C392.138 79.767 393.661 77.1548 394.904 74.5165C395.439 73.3805 395.653 73.0479 395.882 72.9903C396.094 72.937 398.65 73.9458 405.15 76.6494C410.087 78.7025 414.286 80.465 414.481 80.5662C415.037 80.8534 415.038 81.1876 414.49 82.433C412.814 86.2422 410.267 90.7036 407.734 94.2688C406.711 95.708 406.419 96.0067 406.04 96.0002C405.815 95.9962 403.397 94.2073 397.782 89.8891Z" fill="#C7007B"/>
<path d="M14.9515 32.1894C9.9893 30.1197 5.84398 28.3556 5.73967 28.269C5.63536 28.1824 5.55002 28.0048 5.55002 27.8743C5.55002 27.5108 7.37978 23.6636 8.57824 21.5072C9.82764 19.2592 11.0374 17.3158 12.4688 15.2572C13.6705 13.5289 14.0182 13.1298 14.3217 13.1309C14.4444 13.1312 17.8945 15.7046 21.9886 18.8494C30.9361 25.722 30.4877 25.3604 30.4849 25.7C30.4835 25.849 30.0453 26.5942 29.5107 27.3561C28.1378 29.3127 27.2524 30.8226 25.8872 33.5353C24.7736 35.748 24.6764 35.8978 24.3364 35.9242C24.0959 35.9429 20.9335 34.6844 14.9515 32.1894Z" fill="#E5001D"/>
<path d="M395.718 35.872C395.612 35.7487 395.074 34.7267 394.521 33.6008C393.409 31.3317 391.947 28.8403 390.714 27.1079C390.208 26.3978 389.904 25.8477 389.904 25.6429C389.904 25.3553 390.873 24.5726 397.813 19.2579C403.58 14.8411 405.827 13.1879 406.109 13.1537C406.473 13.1095 406.55 13.1813 407.428 14.3901C410.016 17.9497 412.861 22.9281 414.59 26.9248C414.973 27.8086 414.989 27.9 414.815 28.1655C414.673 28.3812 412.385 29.3789 405.557 32.2017C400.568 34.264 396.357 35.9839 396.198 36.0237C396.006 36.0721 395.846 36.0215 395.718 35.872Z" fill="#008663"/>
<path d="M62.4275 83.9743C55.3724 83.3484 48.3589 79.5265 43.6188 73.7247C41.0389 70.5669 38.9336 66.1604 37.9949 61.9536C37.4196 59.3752 37.2744 57.9589 37.2632 54.8156C37.2446 49.6102 38.1122 45.6592 40.2193 41.3545C44.0852 33.4566 51.1933 27.974 60.3248 25.8469C63.5128 25.1042 68.5593 24.8363 72.173 25.2177C86.3126 26.7102 96.7885 35.3831 99.4117 47.7684C100.025 50.6618 100.007 50.1614 100.054 66.6309C100.085 77.542 100.059 82.1798 99.9646 82.3561C99.8323 82.6033 99.7267 82.6062 90.9273 82.6062C84.1677 82.6062 81.9879 82.5703 81.8749 82.4573C81.761 82.3434 81.7259 79.2463 81.7256 69.2754C81.7253 61.1716 81.6759 55.7027 81.595 54.8156C81.3468 52.0957 80.6009 49.5246 79.4853 47.5434C78.7655 46.265 76.8134 44.2694 75.5663 43.537C72.4284 41.694 67.8087 41.2549 64.259 42.4622C60.0433 43.8961 56.9398 47.2244 55.8951 51.4318C55.6831 52.2854 55.6242 52.8953 55.6222 54.2573C55.6195 56.2011 55.8205 57.4093 56.4261 59.0829C57.7865 62.8425 61.1591 65.8715 65.1633 66.9299C67.4232 67.5272 71.1264 67.3363 74.4061 66.4536C75.1909 66.2424 75.998 66.0637 76.1997 66.0566C76.8943 66.0318 76.89 65.9821 76.8562 73.6916C76.8276 80.2339 76.8101 80.7362 76.6043 80.9636C76.2436 81.3621 73.8142 82.553 72.5452 82.9536C71.1887 83.3817 69.8317 83.6659 68.327 83.8371C66.7522 84.0163 63.7006 84.0873 62.4275 83.9743ZM283.332 83.7185C269.136 82.3909 259.29 74.6041 256.276 62.3215C256.075 61.5027 255.787 60.0791 255.636 59.1579L255.362 57.483L255.324 29.5688C255.289 3.32246 255.3 1.64532 255.5 1.49909C255.666 1.37789 257.648 1.34355 264.478 1.34355C272.813 1.34355 273.254 1.35472 273.449 1.57044C273.639 1.78 273.655 3.74412 273.655 27.3076C273.655 49.2638 273.681 53.0155 273.841 54.2367C274.396 58.4729 276.315 62.1621 279.14 64.4219C281.384 66.2179 283.942 67.0983 286.912 67.0979C290.647 67.0974 293.964 65.7134 296.387 63.1454C297.426 62.0437 297.871 61.3888 298.533 59.9864C300.273 56.3 300.139 51.4786 298.201 47.992C295.729 43.5479 290.873 41.1632 285.286 41.6501C283.385 41.8158 281.799 42.1289 280.478 42.5994C279.153 43.0713 278.859 43.1097 278.659 42.8367C278.525 42.653 278.493 41.1175 278.493 34.7655C278.493 30.4512 278.528 26.8309 278.57 26.7204C278.665 26.4741 279.118 26.2796 280.552 25.8695C287.514 23.8786 295.578 24.7767 302.529 28.317C309.957 32.1002 315.21 38.607 317.202 46.4909C318.936 53.3542 318.242 61.1002 315.338 67.3032C311.57 75.3544 304.324 80.9925 295.118 83.0385C292.737 83.5678 291.005 83.7431 287.736 83.7862C285.962 83.8096 283.98 83.7792 283.332 83.7185ZM349.925 83.6586C337.878 82.2004 328.223 73.9981 325.077 62.549C324.25 59.5366 324.093 58.2493 324.09 54.4434C324.087 50.7811 324.196 49.7133 324.85 47.0146C326.57 39.917 330.959 33.6828 337.052 29.6836C343.993 25.1275 352.851 23.6913 361.121 25.7809C371.529 28.4111 379.508 36.3384 382.146 46.6716C382.754 49.0557 382.977 50.731 383.048 53.4684C383.15 57.3813 382.713 60.4892 381.578 63.9344C379.601 69.9384 375.733 75.1038 370.549 78.6641C366.521 81.4311 362.086 83.0713 357.027 83.6649C355.164 83.8836 351.759 83.8806 349.925 83.6586ZM356.84 66.6709C361.169 65.3961 364.269 62.1914 365.427 57.7932C365.811 56.3368 365.941 53.8598 365.716 52.3168C364.961 47.1514 361.324 43.1163 356.32 41.8924C354.672 41.4893 352.193 41.5171 350.522 41.9575C346.107 43.1206 342.884 46.3853 341.626 50.9696C341.259 52.3071 341.167 55.3433 341.448 56.8411C342.452 62.187 346.487 66.1719 351.754 67.017C351.958 67.0499 352.935 67.0594 353.925 67.0383C355.433 67.006 355.904 66.9465 356.84 66.6709ZM109.293 82.4573C109.095 82.2588 109.078 47.4801 109.275 45.6609C109.875 40.1404 111.906 35.5378 115.31 31.985C118.721 28.4252 122.978 26.2463 128.312 25.3297C130.123 25.0186 134.613 25.0169 136.067 25.327C140.245 26.2179 144.272 28.5362 147.726 32.0396C148.236 32.557 148.699 32.9803 148.754 32.9803C148.81 32.9803 149.119 32.6938 149.44 32.3436C150.351 31.3503 152.632 29.4365 153.956 28.5546C156.276 27.009 158.791 25.9231 161.376 25.3515C162.632 25.0737 165.947 24.9694 167.589 25.156C178.152 26.357 185.829 33.27 187.851 43.4018C188.022 44.2547 188.22 45.7035 188.291 46.6212C188.47 48.8999 188.472 82.0335 188.294 82.3663C188.169 82.6002 187.937 82.6063 179.262 82.6063C172.502 82.6063 170.322 82.5705 170.209 82.4574C170.095 82.3432 170.06 78.5989 170.06 66.36C170.06 56.4637 170.012 49.9045 169.934 49.0755C169.574 45.2816 167.95 43.2299 164.937 42.7615C162.329 42.3561 160.038 43.5638 158.897 45.9451C157.913 47.9977 157.98 46.6421 157.935 65.4768C157.907 77.4112 157.856 82.3264 157.759 82.4427C157.565 82.6772 139.855 82.6856 139.703 82.4513C139.648 82.366 139.574 74.6476 139.539 65.2993L139.475 48.3023L139.189 47.3727C138.377 44.7371 136.824 43.1904 134.578 42.7805C133.096 42.51 131.325 42.8576 130.183 43.6431C129.659 44.0038 129.026 44.7024 128.601 45.3885C128.267 45.9271 127.788 47.3977 127.644 48.3261C127.548 48.9483 127.506 54.1986 127.506 65.6724C127.506 76.7773 127.464 82.2044 127.378 82.3664C127.253 82.6002 127.021 82.6063 118.346 82.6063C111.586 82.6063 109.406 82.5703 109.293 82.4573ZM198.476 82.3662C198.388 82.2029 198.347 73.2939 198.347 54.4604C198.347 29.4751 198.366 26.7757 198.542 26.5997C198.716 26.4261 199.706 26.4047 207.574 26.4047C214.282 26.4047 216.447 26.4406 216.56 26.5536C216.777 26.7703 216.777 82.2406 216.56 82.4573C216.447 82.5703 214.267 82.6062 207.508 82.6062C198.832 82.6062 198.601 82.6 198.476 82.3662ZM226.907 82.3332C226.69 82.1165 226.69 26.6462 226.907 26.4295C227.02 26.3165 229.2 26.2806 235.959 26.2806C244.635 26.2806 244.866 26.2868 244.991 26.5206C245.079 26.684 245.12 35.5678 245.12 54.3456C245.12 79.1114 245.1 81.9588 244.927 82.2064L244.733 82.4821H235.895C229.185 82.4821 227.02 82.4462 226.907 82.3332ZM205.51 20.8819C202.091 20.2337 199.159 17.8757 197.901 14.7622C197.294 13.2577 197.171 12.5551 197.17 10.5864C197.17 9.01791 197.214 8.56943 197.454 7.73291C198.287 4.8197 200.138 2.56269 202.751 1.27214C204.435 0.440645 205.517 0.197362 207.528 0.197362C209.588 0.197362 210.618 0.439069 212.491 1.3617C213.638 1.92714 213.934 2.14491 214.978 3.19329C216.009 4.22949 216.246 4.55138 216.809 5.68583C217.528 7.1338 217.812 8.11408 217.942 9.59294C218.397 14.765 215.427 19.2137 210.568 20.6383C209.154 21.0526 206.967 21.158 205.51 20.8819ZM234.574 20.81C233.295 20.6595 232.11 20.2822 230.79 19.605C229.903 19.1497 229.442 18.8016 228.544 17.9108C227.236 16.6121 226.565 15.5526 226.026 13.9362C224.827 10.3404 225.528 6.387 227.854 3.62338C229.695 1.43551 232.311 0.17153 235.319 0.0157984C241.713 -0.315277 246.652 4.59755 246.319 10.9586C246.233 12.6046 245.995 13.5923 245.347 14.9905C243.733 18.4748 240.506 20.6142 236.497 20.8588C235.951 20.8921 235.086 20.8701 234.574 20.81Z" fill="#010101"/>
</g>
<defs>
<clipPath id="clip0_1083_1563">
<rect width="420.393" height="96" fill="white"/>
</clipPath>
</defs>
</svg>
