<?xml version="1.0" encoding="utf-8"?>
<!-- Generator: Adobe Illustrator 18.0.0, SVG Export Plug-In . SVG Version: 6.00 Build 0)  -->
<!DOCTYPE svg PUBLIC "-//W3C//DTD SVG 1.1//EN" "http://www.w3.org/Graphics/SVG/1.1/DTD/svg11.dtd">
<svg version="1.1" id="レイヤー_1" xmlns="http://www.w3.org/2000/svg" xmlns:xlink="http://www.w3.org/1999/xlink" x="0px"
	 y="0px" viewBox="0 0 102.1 109.1" enable-background="new 0 0 102.1 109.1" xml:space="preserve">
<g id="ハテナブロック_6_">
	<path fill="#FFD900" d="M100.7,21.7l-47-21.1c-1.7-0.8-3.3-0.8-5,0l-47,21.1c-1.3,0.6-1.8,2.6-1.8,4v57.7c0,2.1,0.8,3.4,2.5,4.2
		l46.1,21c1.7,0.8,3.3,0.8,4.9,0l46.1-21c1.7-0.8,2.5-2.1,2.5-4.2V25.7C102.1,24.5,102.1,22.3,100.7,21.7z"/>
	<path fill="#FFED61" d="M53.5,44.7l46.1-21c2.4-1,1.1-2,1.1-2l-47-21.1c-1.7-0.8-3.3-0.8-5,0l-47,21.1c0,0-1.6,0.9,0.7,2l46.1,21
		C50,45.3,51.7,45.4,53.5,44.7z"/>
	<path fill="#FABE00" d="M53.5,108.5l46.1-21c1.7-0.8,2.5-2.1,2.5-4.2V25.7c0-1.1,0-3.3-1.4-4c0,0,1.3,1-1.1,2l-46.1,21
		c-1.7,0.8-2.4,1.6-2.4,3.9v57.8C51.1,108.1,52,109.1,53.5,108.5z"/>
	<path fill="#FBE4AE" d="M71.6,85.4c0,0-0.1,0.1-0.1,0.2v8.1c0,0.1,0,0.1,0.1,0.1l10-4.5c0.1,0,0.1-0.1,0.1-0.2v-8.1
		c0-0.1,0-0.1-0.1-0.1L71.6,85.4z"/>
	<path fill="#FBE4AE" d="M94.1,40.4l-4.6-3.8c0,0,0,0-0.1,0L63.7,48.2c0,0-0.1,0-0.1,0.1l-4.6,8c0,0,0,0.1,0,0.1v12.1
		c0,0.1,0,0.1,0.1,0.1l10-4.6c0.1,0,0.1-0.1,0.1-0.2v-8.5l1.1-1.9l12.4-5.7l1.1,0.9V57l-1.1,1.9L76,62c0,0-0.1,0-0.1,0.1l-4.5,7.7
		c0,0,0,0.1,0,0.1V81c0,0.1,0,0.1,0.1,0.1l10-4.5c0.1,0,0.1-0.1,0.1-0.2v-7.2l1.1-1.9l6.7-3.1c0,0,0.1,0,0.1-0.1l4.5-7.7
		c0,0,0-0.1,0-0.1L94.1,40.4C94.1,40.4,94.1,40.4,94.1,40.4z"/>
	<path fill="#CF7B10" d="M55.8,98.8c-1.3,0.6-2.3,2.3-2.3,3.9c0,1.6,1,2.4,2.3,1.8c1.2-0.6,2.3-2.3,2.3-3.9
		C58,99.1,57,98.2,55.8,98.8z"/>
	<path fill="#CF7B10" d="M55.8,46.6c-1.3,0.6-2.3,2.3-2.3,3.9c0,1.6,1,2.4,2.3,1.8C57,51.7,58,50,58,48.4S57,46.1,55.8,46.6z"/>
	<path fill="#CF7B10" d="M97.4,79.9c-1.2,0.6-2.3,2.3-2.3,3.9c0,1.6,1,2.4,2.3,1.8c1.2-0.6,2.3-2.3,2.3-3.9
		C99.6,80.1,98.6,79.3,97.4,79.9z"/>
	<path fill="#CF7B10" d="M97.4,33.4c1.2-0.6,2.3-2.3,2.3-3.9s-1-2.4-2.3-1.8c-1.2,0.6-2.3,2.3-2.3,3.9S96.1,33.9,97.4,33.4z"/>
	<path fill="#FFFFFF" d="M20.5,80.8C20.5,80.8,20.4,80.9,20.5,80.8L20.4,89c0,0.1,0,0.1,0.1,0.1l10,4.6c0.1,0,0.1,0,0.1-0.1v-8.1
		c0-0.1,0-0.1-0.1-0.2L20.5,80.8z"/>
	<path fill="#FFFFFF" d="M43,56.3l-4.6-8c0,0,0-0.1-0.1-0.1L12.7,36.5c0,0-0.1,0-0.1,0L8,40.4c0,0,0,0,0,0.1v12.1
		c0,0.1,0,0.1,0.1,0.2l10,4.6c0.1,0,0.1,0,0.1-0.1v-8.5l1.1-0.9l12.4,5.7l1.1,1.9v8.3l-1.1,0.9L25,61.5c0,0-0.1,0-0.1,0l-4.5,3.7
		c0,0,0,0,0,0.1v11.1c0,0.1,0,0.1,0.1,0.2l10,4.6c0.1,0,0.1,0,0.1-0.1v-7.2l1.1-0.9l6.7,3.1c0,0,0.1,0,0.1,0l4.5-3.7c0,0,0,0,0-0.1
		L43,56.3C43,56.4,43,56.3,43,56.3z"/>
	<path fill="#F08300" d="M4.7,79.9c-1.2-0.6-2.3,0.2-2.3,1.8c0,1.6,1,3.3,2.3,3.9C6,86.1,7,85.3,7,83.8C7,82.2,6,80.5,4.7,79.9z"/>
	<path fill="#F08300" d="M4.7,27.7c-1.2-0.6-2.3,0.2-2.3,1.8s1,3.3,2.3,3.9C6,33.9,7,33.1,7,31.6C7,30,6,28.3,4.7,27.7z"/>
	<path fill="#F08300" d="M46.3,98.8c-1.2-0.6-2.3,0.2-2.3,1.8c0,1.6,1,3.3,2.3,3.9c1.2,0.6,2.3-0.2,2.3-1.8
		C48.6,101.1,47.6,99.4,46.3,98.8z"/>
	<path fill="#F08300" d="M46.3,52.3c1.2,0.6,2.3-0.2,2.3-1.8c0-1.6-1-3.3-2.3-3.9c-1.2-0.6-2.3,0.2-2.3,1.8
		C44,50,45.1,51.7,46.3,52.3z"/>
</g>
</svg>
